<svg id="Layer_1" data-name="Layer 1" xmlns="http://www.w3.org/2000/svg" viewBox="0 0 497.96 286.02"><defs><style>.cls-1,.cls-3{fill:#fff;}.cls-2{fill:#00abfb;}.cls-3{font-size:16.54px;font-family:MicrosoftSansSerif, Microsoft Sans Serif;letter-spacing:0.04em;}</style></defs><title>Untitled-2</title><path class="cls-1" d="M180.34,431.34a13.44,13.44,0,0,0,.3,3,6.61,6.61,0,0,0,.88,2.19,4,4,0,0,0,1.5,1.35,4.84,4.84,0,0,0,2.16.45,6.88,6.88,0,0,0,1.38-.13,11.21,11.21,0,0,0,1.22-.34,6.87,6.87,0,0,0,1-.42c.28-.15.49-.28.65-.38l.91,2.34a3.28,3.28,0,0,1-.64.37,8.43,8.43,0,0,1-1.19.47,11.6,11.6,0,0,1-1.61.38,10.51,10.51,0,0,1-1.9.16,8.55,8.55,0,0,1-3.44-.64,6.47,6.47,0,0,1-2.48-1.87,8.36,8.36,0,0,1-1.5-3,14.53,14.53,0,0,1-.51-4,15.85,15.85,0,0,1,.2-2.51,11.11,11.11,0,0,1,.63-2.3,8.47,8.47,0,0,1,1.08-2,6.54,6.54,0,0,1,1.53-1.53,7,7,0,0,1,2-1,8.39,8.39,0,0,1,2.54-.35,8.89,8.89,0,0,1,1.65.14l1.48.28a7.75,7.75,0,0,1,1.21.33,3.58,3.58,0,0,1,.79.4l-.85,2.38a3.67,3.67,0,0,0-.69-.35,5.35,5.35,0,0,0-.93-.3l-1.15-.26a5.63,5.63,0,0,0-1.32-.14,4.71,4.71,0,0,0-2.21.48,4.13,4.13,0,0,0-1.52,1.42,6.54,6.54,0,0,0-.88,2.28A14.9,14.9,0,0,0,180.34,431.34Z" transform="translate(-169.2 -154.77)"/><path class="cls-1" d="M208.09,431.81H200v8.56h-3.3V421.94H200v7.87h8.09v-7.87h3.3v18.43h-3.3Z" transform="translate(-169.2 -154.77)"/><path class="cls-1" d="M227.8,421.94l6.1,18.43h-3.3l-1.35-4.27h-6.86L221,440.37H217.7l5.92-18.43Zm-4.9,12.56h5.85l-2.9-9.23Z" transform="translate(-169.2 -154.77)"/><path class="cls-1" d="M240.23,440.37V421.94h3.3v16.22h8.33v2.21Z" transform="translate(-169.2 -154.77)"/><path class="cls-1" d="M258.13,440.37V421.94h3.31v16.22h8.33v2.21Z" transform="translate(-169.2 -154.77)"/><path class="cls-1" d="M276,440.37V421.94H288v2.21h-8.62v5.59h7.53v2h-7.53v6.42h8.76v2.21Z" transform="translate(-169.2 -154.77)"/><path class="cls-1" d="M306.21,440.37l-8.56-14.44v14.44h-3.06V421.94h3.88l8.38,14.22V421.94h3.06v18.43Z" transform="translate(-169.2 -154.77)"/><path class="cls-1" d="M328.9,432.5h-4.36v-2H332v9.87h-2l-.62-2a2.84,2.84,0,0,1-.59,1,3.65,3.65,0,0,1-1,.75,5.51,5.51,0,0,1-1.42.49,8.37,8.37,0,0,1-1.81.17,7.64,7.64,0,0,1-3.25-.65,6.56,6.56,0,0,1-2.39-1.89,8.55,8.55,0,0,1-1.48-3,14.31,14.31,0,0,1-.51-4,14.08,14.08,0,0,1,.56-4.15,8.26,8.26,0,0,1,1.65-3,7,7,0,0,1,2.64-1.85,9.44,9.44,0,0,1,3.55-.63,11.93,11.93,0,0,1,1.75.12,12.52,12.52,0,0,1,1.51.32,8.07,8.07,0,0,1,1.26.49,8.5,8.5,0,0,1,1,.58l-1.06,2.24a7.9,7.9,0,0,0-.92-.49,8.65,8.65,0,0,0-1.08-.42,10.89,10.89,0,0,0-1.19-.29,7.84,7.84,0,0,0-1.29-.1,4.38,4.38,0,0,0-3.76,1.78,9.08,9.08,0,0,0-1.32,5.41,16.1,16.1,0,0,0,.25,2.91,6.9,6.9,0,0,0,.81,2.23,3.92,3.92,0,0,0,1.43,1.43,4.21,4.21,0,0,0,2.14.5,8.06,8.06,0,0,0,1.43-.11,5.2,5.2,0,0,0,1.21-.36,3,3,0,0,0,.91-.64,2.29,2.29,0,0,0,.54-.95Z" transform="translate(-169.2 -154.77)"/><path class="cls-1" d="M340.64,438.73v-15.1h-2.12v-1.69h7.56v1.69h-2.14v15.1h2.14v1.64h-7.56v-1.64Z" transform="translate(-169.2 -154.77)"/><path class="cls-1" d="M364.44,440.37l-8.56-14.44v14.44h-3.06V421.94h3.87l8.39,14.22V421.94h3.06v18.43Z" transform="translate(-169.2 -154.77)"/><path class="cls-1" d="M387.13,432.5h-4.36v-2h7.42v9.87h-2l-.63-2a2.69,2.69,0,0,1-.59,1,3.74,3.74,0,0,1-1,.75,5.58,5.58,0,0,1-1.43.49,8.34,8.34,0,0,1-1.8.17,7.64,7.64,0,0,1-3.25-.65,6.48,6.48,0,0,1-2.39-1.89,8.56,8.56,0,0,1-1.49-3,14.31,14.31,0,0,1-.51-4,13.74,13.74,0,0,1,.57-4.15,8.26,8.26,0,0,1,1.65-3,6.83,6.83,0,0,1,2.64-1.85,9.4,9.4,0,0,1,3.55-.63,11.61,11.61,0,0,1,3.25.44,7.36,7.36,0,0,1,1.26.49,8.66,8.66,0,0,1,1,.58L388,425.36a8.8,8.8,0,0,0-.92-.49,8.65,8.65,0,0,0-1.08-.42,11.67,11.67,0,0,0-1.2-.29,7.63,7.63,0,0,0-1.28-.1,4.4,4.4,0,0,0-3.77,1.78,9.16,9.16,0,0,0-1.31,5.41,15.25,15.25,0,0,0,.25,2.91,6.9,6.9,0,0,0,.81,2.23,3.85,3.85,0,0,0,1.43,1.43,4.21,4.21,0,0,0,2.14.5,8.21,8.21,0,0,0,1.43-.11,5.27,5.27,0,0,0,1.2-.36,2.87,2.87,0,0,0,.91-.64,2.43,2.43,0,0,0,.55-.95Z" transform="translate(-169.2 -154.77)"/><path class="cls-1" d="M414.22,424.15v16.22h-3.3V424.15h-5.06v-2.21h13.36v2.21Z" transform="translate(-169.2 -154.77)"/><path class="cls-1" d="M436.74,431.81h-8.09v8.56h-3.3V421.94h3.3v7.87h8.09v-7.87H440v18.43h-3.3Z" transform="translate(-169.2 -154.77)"/><path class="cls-1" d="M447.6,440.37V421.94h11.92v2.21H450.9v5.59h7.53v2H450.9v6.42h8.76v2.21Z" transform="translate(-169.2 -154.77)"/><path class="cls-1" d="M477.45,438.73v-15.1h-2.11v-1.69h7.55v1.69h-2.14v15.1h2.14v1.64h-7.55v-1.64Z" transform="translate(-169.2 -154.77)"/><path class="cls-1" d="M492.69,425.92v14.45h-3.06V421.94h4.49l5.06,14.83,5.14-14.83H509v18.43H506V425.55l-5.06,14.82h-3.27Z" transform="translate(-169.2 -154.77)"/><path class="cls-1" d="M529.74,427.78a5.86,5.86,0,0,1-.55,2.67,4.36,4.36,0,0,1-1.64,1.77,7.87,7.87,0,0,1-2.74,1,21.57,21.57,0,0,1-3.83.3h-1.34v6.87h-3.3V421.94h5c.76,0,1.49,0,2.2.1a11.27,11.27,0,0,1,2,.35,8,8,0,0,1,1.69.68,4.64,4.64,0,0,1,1.33,1.07,4.77,4.77,0,0,1,.87,1.55A6.56,6.56,0,0,1,529.74,427.78Zm-8.87,3.51a15.77,15.77,0,0,0,2.43-.17,5.47,5.47,0,0,0,1.74-.58,2.69,2.69,0,0,0,1.05-1,3.34,3.34,0,0,0,.35-1.59,4.3,4.3,0,0,0-.37-1.94,2.76,2.76,0,0,0-1-1.15,4.29,4.29,0,0,0-1.63-.54,14.92,14.92,0,0,0-2.09-.13h-1.67v7.14Z" transform="translate(-169.2 -154.77)"/><path class="cls-1" d="M551.52,431.08a16.6,16.6,0,0,1-.41,3.83,8.53,8.53,0,0,1-1.34,3.08,6.5,6.5,0,0,1-2.46,2.05,8.39,8.39,0,0,1-3.74.75,9.35,9.35,0,0,1-2.65-.35,6.82,6.82,0,0,1-2-1,6.23,6.23,0,0,1-1.5-1.53,8.27,8.27,0,0,1-1-2,12.74,12.74,0,0,1-.56-2.36,18.91,18.91,0,0,1-.18-2.65,13.87,13.87,0,0,1,.51-3.91,7.82,7.82,0,0,1,1.5-2.93,6.43,6.43,0,0,1,2.48-1.84,9.7,9.7,0,0,1,6.93,0,6.24,6.24,0,0,1,2.49,1.86,8.2,8.2,0,0,1,1.5,3A14.7,14.7,0,0,1,551.52,431.08Zm-12.59.17a15.65,15.65,0,0,0,.25,3,7,7,0,0,0,.82,2.23,4,4,0,0,0,1.44,1.41,4.88,4.88,0,0,0,4.22,0,3.8,3.8,0,0,0,1.45-1.37,6.59,6.59,0,0,0,.84-2.22,15.09,15.09,0,0,0,.27-3,16.4,16.4,0,0,0-.26-3.06,7.08,7.08,0,0,0-.83-2.25,3.93,3.93,0,0,0-1.44-1.4,4.35,4.35,0,0,0-2.08-.47,4.41,4.41,0,0,0-2.13.47,3.85,3.85,0,0,0-1.46,1.38,6.83,6.83,0,0,0-.83,2.26A15.7,15.7,0,0,0,538.93,431.25Z" transform="translate(-169.2 -154.77)"/><path class="cls-1" d="M570.93,435.35a6,6,0,0,1-.38,2.14,4.4,4.4,0,0,1-1.2,1.73,5.58,5.58,0,0,1-2.09,1.14,9.79,9.79,0,0,1-3,.41,10.52,10.52,0,0,1-2.29-.23A16.07,16.07,0,0,1,560,440a13.08,13.08,0,0,1-1.77-.76l.56-2.39s.08.06.24.14a6.2,6.2,0,0,0,.66.27c.28.11.61.22,1,.34s.77.24,1.18.34.85.18,1.29.25a8.16,8.16,0,0,0,1.28.1,5.86,5.86,0,0,0,1.38-.14,2.94,2.94,0,0,0,1.05-.44,2.11,2.11,0,0,0,.66-.79,2.73,2.73,0,0,0,.24-1.2,2.63,2.63,0,0,0-.56-1.72,4,4,0,0,0-1.71-1.13l-3.94-1.54a8.3,8.3,0,0,1-1.52-.76,5.76,5.76,0,0,1-1.22-1,4.44,4.44,0,0,1-.8-1.32,4.33,4.33,0,0,1-.29-1.65,4.42,4.42,0,0,1,1.92-3.83,6.33,6.33,0,0,1,2-.9,10.25,10.25,0,0,1,2.44-.28,11.35,11.35,0,0,1,2.08.18,15.47,15.47,0,0,1,1.75.43,12.44,12.44,0,0,1,1.32.5l.78.39-.67,2.28c-.13-.08-.37-.2-.69-.35a10.36,10.36,0,0,0-1.15-.44,12.51,12.51,0,0,0-1.44-.38,7.66,7.66,0,0,0-1.59-.16,8.54,8.54,0,0,0-1.49.11,3.44,3.44,0,0,0-1.16.37,1.91,1.91,0,0,0-1,1.83,2,2,0,0,0,.09.6,1.65,1.65,0,0,0,.3.55,2.79,2.79,0,0,0,.56.5,5.4,5.4,0,0,0,.9.44l3.92,1.45a10.33,10.33,0,0,1,1.73.86,5.77,5.77,0,0,1,1.37,1.16,5.27,5.27,0,0,1,.9,1.52A5.19,5.19,0,0,1,570.93,435.35Z" transform="translate(-169.2 -154.77)"/><path class="cls-1" d="M590,435.35a6,6,0,0,1-.38,2.14,4.37,4.37,0,0,1-1.19,1.73,5.66,5.66,0,0,1-2.09,1.14,9.86,9.86,0,0,1-3.06.41,10.52,10.52,0,0,1-2.29-.23,16.07,16.07,0,0,1-1.9-.51,12.42,12.42,0,0,1-1.76-.76l.55-2.39s.09.06.25.14a6.2,6.2,0,0,0,.66.27c.28.11.6.22,1,.34s.76.24,1.17.34.85.18,1.29.25a8.16,8.16,0,0,0,1.28.1,5.86,5.86,0,0,0,1.38-.14,2.94,2.94,0,0,0,1.05-.44,2.13,2.13,0,0,0,.67-.79,2.73,2.73,0,0,0,.23-1.2,2.58,2.58,0,0,0-.56-1.72,4,4,0,0,0-1.7-1.13l-4-1.54a8.63,8.63,0,0,1-1.52-.76,5.46,5.46,0,0,1-1.21-1,4.69,4.69,0,0,1-.81-1.32,4.53,4.53,0,0,1-.29-1.65,4.42,4.42,0,0,1,1.92-3.83,6.42,6.42,0,0,1,2-.9,10.25,10.25,0,0,1,2.44-.28,11.54,11.54,0,0,1,2.09.18,15.82,15.82,0,0,1,1.74.43,11.65,11.65,0,0,1,1.32.5q.54.25.78.39l-.66,2.28c-.14-.08-.37-.2-.7-.35a10.36,10.36,0,0,0-1.15-.44,12.51,12.51,0,0,0-1.44-.38,7.66,7.66,0,0,0-1.59-.16,8.61,8.61,0,0,0-1.49.11,3.52,3.52,0,0,0-1.16.37,2.05,2.05,0,0,0-.75.71,2.16,2.16,0,0,0-.27,1.12,2.35,2.35,0,0,0,.08.6,1.65,1.65,0,0,0,.3.55,2.79,2.79,0,0,0,.56.5,5.17,5.17,0,0,0,.91.44l3.91,1.45a10.83,10.83,0,0,1,1.74.86,6,6,0,0,1,1.37,1.16,5,5,0,0,1,.89,1.52A5.19,5.19,0,0,1,590,435.35Z" transform="translate(-169.2 -154.77)"/><path class="cls-1" d="M598.16,438.73v-15.1h-2.11v-1.69h7.56v1.69h-2.14v15.1h2.14v1.64h-7.56v-1.64Z" transform="translate(-169.2 -154.77)"/><path class="cls-1" d="M615,421.94a21.84,21.84,0,0,1,3.65.26,9.9,9.9,0,0,1,2.48.73,5.32,5.32,0,0,1,.94.59,3.85,3.85,0,0,1,.73.78,3.46,3.46,0,0,1,.46,1,4.11,4.11,0,0,1,.17,1.21,4.45,4.45,0,0,1-.3,1.72,3.12,3.12,0,0,1-.85,1.19,3.91,3.91,0,0,1-1.28.74,8.69,8.69,0,0,1-1.65.38,10.21,10.21,0,0,1,1.83.4,4.51,4.51,0,0,1,1.48.81,3.63,3.63,0,0,1,1,1.38,5.35,5.35,0,0,1,.36,2.1,6,6,0,0,1-.28,2,3.8,3.8,0,0,1-.84,1.4,4,4,0,0,1-1.33.92,8.1,8.1,0,0,1-1.8.55,15.9,15.9,0,0,1-2.23.26c-.81,0-1.69.06-2.62.06h-4.53V421.94Zm-1.32,7.74H616a10,10,0,0,0,2-.17,3.63,3.63,0,0,0,1.35-.53,2.16,2.16,0,0,0,.75-.92,3.67,3.67,0,0,0,.23-1.35,2.45,2.45,0,0,0-.26-1.16,2,2,0,0,0-.82-.8,4.82,4.82,0,0,0-1.51-.46,16.15,16.15,0,0,0-2.28-.14h-1.82Zm2,8.48A18.06,18.06,0,0,0,618,438a4.32,4.32,0,0,0,1.6-.49,2.16,2.16,0,0,0,.9-1,4,4,0,0,0,.28-1.58,4.13,4.13,0,0,0-.28-1.6,2.27,2.27,0,0,0-.88-1,3.79,3.79,0,0,0-1.5-.54,13.72,13.72,0,0,0-2.18-.15h-2.33v6.47Z" transform="translate(-169.2 -154.77)"/><path class="cls-1" d="M630.75,440.37V421.94h3.3v16.22h8.33v2.21Z" transform="translate(-169.2 -154.77)"/><path class="cls-1" d="M648.66,440.37V421.94h11.92v2.21H652v5.59h7.53v2H652v6.42h8.76v2.21Z" transform="translate(-169.2 -154.77)"/><g id="R2moNT"><path class="cls-1" d="M354.84,208.57c.46.4.92.77,1.33,1.19a22.09,22.09,0,0,0,14.19,6.43,18.06,18.06,0,0,0,4.95-.45c12.22-2.29,24.41-2.62,36.56.31a62.36,62.36,0,0,1,19.71,8,37.23,37.23,0,0,1,13,14.3c.51,1,1.1,2,1.82,3.21a18.24,18.24,0,0,0,1.39-2.06c5-10.47,13.54-16.86,24.18-20.79a77.33,77.33,0,0,1,43.41-3.32c7.71,1.62,14.21-.2,20.27-4.75.35-.26.75-.46,1.26-.77,2.47,5.83,4.88,11.55,7.42,17.56a73,73,0,0,1-8.88.47c-3,.15-5.9.26-8.86.38l-8.64.32-9.12.32c.19,1,.31,1.88.52,2.72a54.06,54.06,0,0,1,1.41,18.05,42.17,42.17,0,0,1-4.47,15.41,23.47,23.47,0,0,1-14.36,12.13c-.29.09-.58.17-.87.27-1.84.67-2.15,1.22-1.35,3.07,2,4.67,4.09,9.29,6.15,13.94.76,1.73,1.65,3.42,2.27,5.2A9.65,9.65,0,0,1,495.05,311a20.36,20.36,0,0,1-5.2,3.2,36.07,36.07,0,0,1-23.4,1.42,17,17,0,0,1-9.4-6c-1.85-2.44-1.77-3.68.65-5.53,1.86-1.42,3.84-2.7,5.79-4,.88-.59,1.84-1.06,2.72-1.66a11.78,11.78,0,0,0,4.36-15.2,4.7,4.7,0,0,0-.52-.64A65.76,65.76,0,0,1,446.34,287a68.65,68.65,0,0,1-23.48-4.5c-2.72,5-1.9,10.62,2.1,14.23a39.25,39.25,0,0,0,4.24,3c2.18,1.51,4.45,2.89,6.54,4.51,1.89,1.46,1.93,2.51.57,4.48a15.31,15.31,0,0,1-8.05,6A35.23,35.23,0,0,1,401.49,313a15.94,15.94,0,0,1-3.6-2.35c-3.28-2.84-4.59-6.4-3.22-10.61a60.68,60.68,0,0,1,3-7.12c1.31-2.74,2.85-5.36,4.17-8.09a37.76,37.76,0,0,0,1.69-4.45,1.86,1.86,0,0,0-1.11-2.43,17.45,17.45,0,0,0-1.88-.81c-7.56-2.69-12.59-8-15.43-15.36a47.24,47.24,0,0,1-1.57-29.69c.21-.81.41-1.61.6-2.42a3.39,3.39,0,0,0-.09-.76l-37.31-1.1C346.76,226.22,352.7,212.22,354.84,208.57Zm67.38,70.11c3.55.44,4.38-.06,5.32-3.08.38-1.23.73-2.48,1-3.73,2.76-12.08.15-22.85-8-32.17-6.38-7.27-14.45-8.94-23.57-6.76-1.56.38-2,.92-1.93,2.6a47.81,47.81,0,0,0,.51,6.56c1,5.57,4.32,9.1,9.85,10.31a27,27,0,0,0,6.53.53,4.55,4.55,0,0,1,4.71,2.68,38.86,38.86,0,0,1,4.46,14.45C421.4,272.92,421.83,275.76,422.22,278.68Zm48.56-.08c.11-.9.22-1.64.3-2.39.32-2.86.55-5.73,1-8.58a34.72,34.72,0,0,1,4.3-12.84,3.65,3.65,0,0,1,4.12-2,19.94,19.94,0,0,0,8.54-.7,10.45,10.45,0,0,0,8-8.7c.43-2.37.57-4.81.84-7.21a2,2,0,0,0-1.59-2.39c-.43-.14-.86-.29-1.3-.4-9-2.34-16.66.24-22.62,7-9.24,10.48-11.39,22.59-6.83,35.82.94,2.72,1.41,2.92,4.19,2.64C470,278.77,470.25,278.69,470.78,278.6Z" transform="translate(-169.2 -154.77)"/><path class="cls-1" d="M487.56,354.51a15.56,15.56,0,0,1,1.82-.89,41.55,41.55,0,0,0,14.89-9c3.45-3.08,6.69-6.39,10.07-9.55a47.1,47.1,0,0,1,5-4.24c1.58-1.1,2.18-.79,2.84,1a23.91,23.91,0,0,1,1.43,7.78,48.23,48.23,0,0,1-4.43,20.73q-1.91,4.38-4,8.65a12.28,12.28,0,0,1-2.23,3.11c-1.88,1.86-3.88,1.72-6.06-.35a154,154,0,0,0,9.36-21.95l-.42-.18c-.33.8-.65,1.62-1,2.41-2.38,5.15-4.63,10.37-7.21,15.43-3.65,7.16-8.8,13.24-14.57,18.79A68.44,68.44,0,0,1,474,398.91c-8.8,4.08-17.76,7.81-26.63,11.73a5.83,5.83,0,0,1-5.21-.08q-13.69-6.39-27.49-12.59c-16.76-7.59-27.92-20.52-35-37.14-2.74-6.4-4.87-13.05-7.28-19.59a8.68,8.68,0,0,0-.74-1.65c2.19,11.55,7.44,21.94,12.37,32.42-2.65,2.1-5.84,1.79-7.23-1-3.72-7.45-7.74-14.79-9.2-23.15a32.72,32.72,0,0,1,.79-15.08c1-3.52,2.68-3.86,5.23-1.13,1.76,1.88,3.45,3.83,5.18,5.74a70.67,70.67,0,0,0,14.63,12.2,60.74,60.74,0,0,0,8.16,3.94c2,.87,2.13,1,1.22,3-.57,1.24-1.25,2.43-1.85,3.65a8.77,8.77,0,0,0,.35,8.89,13.34,13.34,0,0,0,1.58,2.22,36.44,36.44,0,0,0,19.9,11.57,14.21,14.21,0,0,0,4.07.19,8.42,8.42,0,0,0,7.79-7.1,143,143,0,0,0,1.74-21.28,3.34,3.34,0,0,0-.17-.62l-1.94-.82a25.31,25.31,0,0,1-14.32-14.74c-.95-2.43-.67-3.06,1.27-4.66a21.52,21.52,0,0,1,10.31-4.46c1.34-.23,2.69-.48,4-.73,4.14-.76,8.16-1.8,11.16-5.31,2.63,3.33,6.21,4.44,10,5.16,2.91.55,5.83,1.06,8.67,1.83a27.45,27.45,0,0,1,5.89,2.32c2.75,1.5,3.3,3.18,2.07,6.08-3.13,7.42-8.23,12.82-16.1,15.28l-2,.62c-.07,0-.12.08-.34.25a14.56,14.56,0,0,0-.12,1.61c.27,5.6.52,11.21.86,16.81a12.68,12.68,0,0,0,2.4,6.77,6.19,6.19,0,0,0,5.6,2.84c6.26-.23,12.22-1.52,17.44-5.09a27.5,27.5,0,0,0,6-5.5,13.57,13.57,0,0,0,1.85-14.94Z" transform="translate(-169.2 -154.77)"/><path class="cls-1" d="M205,245.06c8-1.36,15.68-2.45,23.66-.67.2,1.1.43,2.2.61,3.3q2.13,12.78,4.25,25.57a1.85,1.85,0,0,0,0,.23c.21.93.12,2.13,1.45,2.25s1.41-1.21,1.66-2.05c2.47-8.28,4.87-16.58,7.29-24.87.41-1.38.82-2.76,1.19-4.16a1.44,1.44,0,0,1,1.41-1.21c6.28-.41,12.54-1.12,18.84-.26a2.76,2.76,0,0,1,2.66,2.24c2.7,8.92,5.47,17.82,8.23,26.73.31,1,.37,2.13,1.59,2.72,1.4-.45,1.46-1.76,1.63-2.9.48-3.37.91-6.76,1.3-10.14.67-5.73,1.3-11.46,2-17.18.06-.52.21-1,.35-1.71,6.61-1.58,13.2-.52,20,0-2.46,24.49-5.76,48.63-10.44,72.51-5.22.86-25.88,1.63-30.86,1.13-.18-.85-.4-1.78-.56-2.72-1.36-8-2.7-16-4.09-24a7.58,7.58,0,0,0-.88-2.55,1.4,1.4,0,0,0-2.56-.07,9,9,0,0,0-1.13,2.7q-3.24,12.68-6.41,25.35c-.13.52-.27,1-.48,1.79-9.61,1-19.27.71-29.2,0C211.55,293.32,209.08,269.2,205,245.06Z" transform="translate(-169.2 -154.77)"/><path class="cls-1" d="M337.09,319.68c-4.1-.25-10.68-.68-17.26-1a4.44,4.44,0,0,1-3.87-2.27,84,84,0,0,1-7.22-13.89,7.69,7.69,0,0,1-.58-2.86c.07-13.57.2-27.13.27-40.7a5.63,5.63,0,0,1,1.51-3.88c2.74-3.14,5.41-6.34,8.07-9.54a7.25,7.25,0,0,1,5.69-2.73c8.55-.38,17.08-1.14,25.64-1.43,4.44-.16,8.92.38,13.38.6a4.73,4.73,0,0,1,3.68,2c1.89,2.46,3.8,4.91,5.61,7.43.46.64,4.85,17.12,4.86,17.87.1,9.85.16,19.7.26,29.55a11.26,11.26,0,0,1-2.06,6.79c-2.32,3.36-4.43,6.87-6.51,10.39a5.12,5.12,0,0,1-4.25,2.54A219.86,219.86,0,0,1,337.09,319.68Zm14.16-58.95c-4.61.06-8.92,0-13.12,1.21-3.54,1-3.76,1.32-4.05,5-.84,10.83-.51,21.67-.4,32.51a1.78,1.78,0,0,0,1.46,2,19,19,0,0,0,15.33-1.91,2.81,2.81,0,0,0,1.41-2.62c.33-10.16.5-20.31-.12-30.46C351.65,264.63,351.44,262.83,351.25,260.73Z" transform="translate(-169.2 -154.77)"/><path class="cls-1" d="M201.07,401.2a64.53,64.53,0,0,1-22.5,1.37c-.16-1.57-.38-3.12-.47-4.68-1-16.05-1.16-32.12-.82-48.19,0-1.11,0-2.23,0-3.44l-4.9-.46c-.71-3.06.24-12.49,1.59-15.89a50.4,50.4,0,0,1,10.93-1.48,302.24,302.24,0,0,1,35.23,0c2.64.15,5.28.51,7.92.68a5.41,5.41,0,0,1,3.88,2.05A43,43,0,0,1,241.61,351a74.12,74.12,0,0,1,.94,8.57,4.69,4.69,0,0,1-1.34,3.72c-3,3.26-5.83,6.57-8.74,9.87l-1,1.15,11.45,23.57c-1.41.59-2.48,1.15-3.62,1.49a94.3,94.3,0,0,1-16.89,3.47,2.93,2.93,0,0,1-3.06-1.36c-2-2.84-4.1-5.64-6.12-8.48s-3.81-5.48-5.76-8.18a11.35,11.35,0,0,0-2.14-2.34c-1.89-1.49-3.77-.73-4.1,1.64a27.49,27.49,0,0,0-.17,3.63C201.06,392.1,201.07,396.49,201.07,401.2Zm.31-36.89a30.82,30.82,0,0,0,10-1.23,29.2,29.2,0,0,0,4.17-1.75,2.65,2.65,0,0,0,1.58-3c-.44-3.15-.9-6.29-1.35-9.44A2.36,2.36,0,0,0,214,347a21.52,21.52,0,0,0-10.95-1.16c-1.65.27-1.91.53-2,2.24-.12,4.39-.14,8.79-.14,13.18A23,23,0,0,0,201.38,364.31Z" transform="translate(-169.2 -154.77)"/><path class="cls-2" d="M588,297.86c-17.44,1.16-34.71.2-52.14.22-.23,1.67-.44,3.21-.67,4.92a128,128,0,0,1-15.27-.88c-.33-2.66-.71-5.26-1-7.86a252.75,252.75,0,0,1-1-29.76c0-1.12,3.28-22.69,4.57-23.6.8-.56,31.4-7.77,33.47-7.66,4.39.24,8.79.43,13.18.6a10.28,10.28,0,0,1,5.93,1.92c3.66,2.69,7.43,5.24,11.12,7.88a7.15,7.15,0,0,1,3,5.53,199.38,199.38,0,0,1,.64,37.92A52.48,52.48,0,0,1,588,297.86Zm-33.89-22.73h0c5.15,0,10.3,0,15.45,0,2,0,2-.13,2.34-2a37.3,37.3,0,0,0,.25-11.31c-.38-2.91-.44-3-3.35-3.73-9.41-2.31-18.9-2.15-28.44-.89a3.75,3.75,0,0,0-3.2,2.79,20.23,20.23,0,0,0-.49,13.15c.57,1.92.67,2,2.67,2.05C544.25,275.15,549.17,275.13,554.09,275.13Z" transform="translate(-169.2 -154.77)"/><path class="cls-1" d="M235.46,235.55c-7.61.7-14.83.91-22.16-.5l-.3-4.13c-2.91-.26-5.77-.46-8.61-.78-6.4-.73-12.8-1.43-19.18-2.3a29.09,29.09,0,0,1-8.83-2.86,10.57,10.57,0,0,1-6.38-8.77c-1.44-13.3-1.19-26.51,3-39.36a50.53,50.53,0,0,1,3.92-8.41,13.35,13.35,0,0,1,7.42-6.05,80.71,80.71,0,0,1,14.1-3.49A256.86,256.86,0,0,1,227,156.05a4.89,4.89,0,0,1,.89.14,51.47,51.47,0,0,1,2.1,16.6c-1,.11-1.91.21-2.8.29-6,.5-11.94.88-17.88,1.55a70.35,70.35,0,0,0-7.74,1.78,4,4,0,0,0-2.86,2.37,32.86,32.86,0,0,0-1.85,4.63,56.57,56.57,0,0,0-1.93,21.15c.39,3.68.38,3.68,4,4.73a42.87,42.87,0,0,0,10.94,1.92c.67,0,1.35,0,2.09,0a14.39,14.39,0,0,0,.95-9.58,1.93,1.93,0,0,0-1.63-1.66c-1.71-.28-3.42-.57-5.15-.76a32.82,32.82,0,0,0-3.31,0,23.58,23.58,0,0,1,.43-10.46c.24-.91,1-1,1.78-1.16,3.29-.48,6.58-1.1,9.9-1.37,5.74-.46,11.49-.69,17.25-1,.59,0,1.18.06,2,.11C235.06,202,235.51,218.63,235.46,235.55Z" transform="translate(-169.2 -154.77)"/><path class="cls-1" d="M293.27,402.69c-2-3-4-5.85-5.84-8.8-3-4.75-5.85-9.57-8.8-14.34a7.86,7.86,0,0,0-1.53-1.94,1.22,1.22,0,0,0-2.08.75,9.77,9.77,0,0,0-.09,2c0,6.07,0,12.13-.06,18.19,0,2.63-.08,2.69-2.54,3.12A89.42,89.42,0,0,1,254,402.9c-.82,0-1.64-.2-2.62-.32-.16-1.74-.38-3.38-.45-5-.66-14-.27-28,.09-42.06.18-7.13.48-14.25.72-21.37,0-.82.09-1.63.14-2.71a124.07,124.07,0,0,1,23.13-.26c0,1.16,0,2.13,0,3.08a112.53,112.53,0,0,0,.33,18.63c.11.93-.09,2.17,1.11,2.51s1.91-.75,2.47-1.61q6.06-9.48,12.05-19c.89-1.41,1.8-2.82,2.57-4.29a2.32,2.32,0,0,1,2.57-1.4c3.08.38,6.18.64,9.23,1.19,3.65.66,7.26,1.56,10.88,2.38a11.88,11.88,0,0,1,1.23.45c-.43.84-.78,1.56-1.17,2.27-5.3,9.71-10.57,19.44-15.94,29.12a4.19,4.19,0,0,0-.16,4.45c2.46,4.52,4.78,9.12,7.3,13.61,2.63,4.7,5.43,9.29,8.14,13.94.41.7.7,1.48,1.15,2.45C309,401.59,301.21,402.15,293.27,402.69Z" transform="translate(-169.2 -154.77)"/><path class="cls-2" d="M612.17,277.63c-.16,1.8-.29,3.21-.44,4.85-1,0-1.78.06-2.58,0-3.32-.32-6.64-.62-9.94-1.07-2.1-.28-2.27-.42-2.51-2.56-.5-4.52-1.06-9-1.2-13.58a284.89,284.89,0,0,1,.67-32.27,8.46,8.46,0,0,1,3.55-6.68A41.2,41.2,0,0,1,624,217.77a5.47,5.47,0,0,1,4.12,1.46c2.83,2.62,5.78,5.13,8.68,7.69.39.34.79.67,1.17,1l21.53-10.46a19.24,19.24,0,0,1,1.18,2.38,83.6,83.6,0,0,1,3.46,16,3.41,3.41,0,0,1-1.65,3.61c-4.67,3.24-9.3,6.55-13.92,9.85a23.88,23.88,0,0,0-2.81,2.3,2.49,2.49,0,0,0-.86,2.66,2.26,2.26,0,0,0,2.32,1.49c1.52.09,3,.16,4.54.17,3.56,0,7.11,0,10.86,0,1.89,6.86,1.94,13.6,1.38,20.7A505.27,505.27,0,0,1,612.17,277.63Zm16.64-22.18a32.72,32.72,0,0,0-1.38-9.83,18.41,18.41,0,0,0-1.18-2.7,2.93,2.93,0,0,0-3.31-1.81c-2.69.43-5.38.84-8.08,1.21a2.34,2.34,0,0,0-2,1.63,20.16,20.16,0,0,0-1,10.29,1.71,1.71,0,0,0,1.84,1.63c4.46,0,8.93,0,13.4,0A8.89,8.89,0,0,0,628.81,255.45Z" transform="translate(-169.2 -154.77)"/><path class="cls-2" d="M531.8,329.31c-1.6-5.14-4.82-8.09-10-8.76a31.94,31.94,0,0,1-.17-9.5c3-.74,57.92-.51,63.52.27.26,1.77.62,3.61.78,5.47.62,6.79,1.15,13.59,1.77,20.38a2.66,2.66,0,0,1-1.57,2.89A166.34,166.34,0,0,1,562,351.26c-.71.27-1.43.52-2.12.84a2.07,2.07,0,0,0-1.38,2.14,2.12,2.12,0,0,0,1.66,1.95,13.93,13.93,0,0,0,3.14.46c7.05.16,14.1.26,21.15.38.82,0,1.64,0,2.56,0a37.16,37.16,0,0,1,.63,17.85c-1.62.14-3.18.36-4.75.4-8.87.27-17.74.63-26.61.69-10.09.07-20.17-.13-30.26-.23-.81,0-1.61-.09-2.8-.16.37-1,.55-1.68.87-2.31a90.72,90.72,0,0,0,9-25.84,70.59,70.59,0,0,0,.52-7.26c.45-.21,1-.54,1.65-.78l12.44-5c1.18-.48,2.58-.81,2.53-2.5,0-1.16-1.33-2-3.34-2.14-4.17-.19-8.34-.29-12.51-.42C533.61,329.29,532.78,329.31,531.8,329.31Z" transform="translate(-169.2 -154.77)"/><path class="cls-1" d="M298.89,186.38a50.36,50.36,0,0,1,.62,11.18c-.1,1.81-.22,1.95-2,2-4.47.15-8.95.19-13.41.36-2.65.1-5.29.4-7.94.55a1.91,1.91,0,0,0-2,1.8c-.15.82-.3,1.65-.38,2.47a40.82,40.82,0,0,0,.68,10.34,15.34,15.34,0,0,0,2.65.49c4.39,0,8.78,0,13.18,0h8.29c.86,5.25,1.18,10.24-.17,15.43-16.3,1.68-32.53,2.19-49,.07-.14-1.07-.34-2.09-.4-3.12-.77-14.32-.77-28.64-.56-43,.05-3.64.11-7.28.15-10.91a14.55,14.55,0,0,0-.18-1.73h-5.64a10,10,0,0,1-.15-1.92c.43-3.61.93-7.21,1.36-10.82a2.11,2.11,0,0,1,2.21-2.06c4.74-.51,9.46-1.45,14.22-1.59,10.22-.3,20.45-.23,30.68-.27,2.58,0,5.16.13,7.73.21.75,0,1.49.1,2.4.16,1.07,5.13.86,10.17.51,15.44-.9.09-1.7.22-2.51.22-5.91.05-11.82.06-17.73.13-1.51,0-3,.23-4.54.28a1.94,1.94,0,0,0-2,1.47,20.9,20.9,0,0,0-.53,11.2c.34,1.51,1.41,1.35,2.46,1.35,5.23,0,10.46-.06,15.69-.05C294.64,186.16,296.68,186.3,298.89,186.38Z" transform="translate(-169.2 -154.77)"/><path class="cls-2" d="M594.81,356c5.11-2.26,10.26-2,15.54-2.08a15.36,15.36,0,0,1,.42,1.81c.63,5.8,1.21,11.6,1.86,17.4.23,2,.63,4,.87,6.07a2.42,2.42,0,0,0,1.72,2.16,18.94,18.94,0,0,0,7.95,1.16c.59-3.21,1.18-6.33,1.73-9.45.9-5.08,1.83-10.14,2.62-15.23a2.5,2.5,0,0,1,2.05-2.32,35.16,35.16,0,0,1,20.17.41c5.55,1.65,5.84,1.92,8.22,7.16a103.43,103.43,0,0,1,7.93,29.29c.39,2.84.83,5.67,1.28,8.73-5.19,2.25-10.6,2.39-16.15,2.73-.38-2.82-.69-5.42-1.08-8s-.8-5.4-1.36-8.06A45.11,45.11,0,0,0,647.1,383a3.08,3.08,0,0,0-3.08-2.22c-4.37-.23-4.29-.55-5.19,3.66-.85,4-1.31,8.08-2.08,12.09-.51,2.6-1.23,5.15-1.93,7.7a2.52,2.52,0,0,1-2.85,2,87.13,87.13,0,0,1-28.13-4.62,4.25,4.25,0,0,1-2.87-2.86,109,109,0,0,1-6.16-37.49C594.82,359.5,594.81,357.77,594.81,356Z" transform="translate(-169.2 -154.77)"/><path class="cls-1" d="M357.41,346.78c-2.07.34-3.77.72-5.5.85a3.08,3.08,0,0,0-2.87,2.43,28.42,28.42,0,0,0-1.2,8.05c2.09.43,4.07.85,6.05,1.23s3.73.71,5.6,1a2.44,2.44,0,0,1,2.09,1.73q3,6.63,6.18,13.16a12.74,12.74,0,0,0,5.47,5.91A46.66,46.66,0,0,0,378,383c-.26,1.12-.48,2.36-.82,3.56-1.91,6.61-2.26,7-8.54,9.8a110.82,110.82,0,0,1-29.73,8.15c-3.6.51-7.18,1.07-10.75,1.61-2-2.43-3.7-12.33-3.06-17.6.58-.1,1.22-.23,1.86-.33,5.25-.78,10.51-1.45,15.73-2.37a34.87,34.87,0,0,0,5.57-1.9,2.25,2.25,0,0,0,1.51-2.08c.09-1.13.25-2.26.27-3.39,0-1.78-.12-2.14-1.9-2.56-3.16-.75-6.38-1.29-9.58-1.9l-11.61-2.2-.44-.1c-4.06-1.15-4.15-1.24-4.09-5.45a88.27,88.27,0,0,1,4.87-29,4.53,4.53,0,0,1,3-3.06,115.8,115.8,0,0,1,23.84-5.7c1.43-.19,2.87-.32,4.3-.46a8.49,8.49,0,0,1,1.13.05A46,46,0,0,0,357.41,346.78Z" transform="translate(-169.2 -154.77)"/><path class="cls-2" d="M519.85,164.53h5.35c14.94.11,29.87.2,44.8.36a8,8,0,0,1,3.69.9c4,2.24,8,4.66,11.95,7a2.39,2.39,0,0,1,1.23,2.23c.35,11.06.77,22.12,1.09,33.18.06,2.42-.27,4.84-.35,7.27a2.5,2.5,0,0,1-1.12,2.09,60.18,60.18,0,0,1-13,7.33,5.67,5.67,0,0,1-2,.38c-5.46.12-12.36.21-17.82.3-.36,0-1.14,0-1.28,0a102.12,102.12,0,0,0-10.11-22.31c.33,0,3.31,0,3.73,0,6.74-.25,13.48-.48,20.22-.74,2.35-.09,2.4-.12,2.87-2.33a17.26,17.26,0,0,0-.85-10.48,3.35,3.35,0,0,0-3.6-2.38c-9.63.18-21.38.14-31,.3a5,5,0,0,1-4.27-1.92c-2.46-2.87-5.42-5.58-8.09-8.26a4,4,0,0,1-1.39-3.16c.09-2.42,0-4.85,0-7.28C519.84,166.22,519.85,165.48,519.85,164.53Z" transform="translate(-169.2 -154.77)"/><path class="cls-1" d="M331.42,230.1a41.86,41.86,0,0,1-19.48.68c-.18-2.41-.43-4.8-.54-7.19-.83-19.17-.78-38.34-.42-57.51,0-1.14.11-2.28,0-3.41a1.86,1.86,0,0,1,1.75-2.19c3-.5,6-1.08,9-1.48a141.7,141.7,0,0,1,21.09-1.29c.6,0,1.2.08,1.92.13.19.39.41.78.56,1.18,3.64,9.56,7.25,19.12,10.92,28.66a3.83,3.83,0,0,1,.11,3.16c-1.5,1.87-13.58,21.37-14.12,22.47-.43-.76-1-1.84-1.25-2.35-1.23-3-2.43-6.05-3.64-9.07-.2-.49-.35-1-.59-1.48a2.29,2.29,0,0,0-2.2-1.34,2.18,2.18,0,0,0-2.09,1.49,10.32,10.32,0,0,0-.54,2.65,200.3,200.3,0,0,0-.49,23.63C331.45,227.81,331.42,228.79,331.42,230.1Z" transform="translate(-169.2 -154.77)"/><path class="cls-2" d="M614.69,329.13c-.64,6.17.4,11.93.7,17.95-2.15,0-4.11.14-6,0-3-.27-6-.78-9-1.14a2.09,2.09,0,0,1-2-2c-.33-2.7-.84-5.39-1-8.11q-1.5-21.43-1-42.94c0-1.73.23-3.45.37-5.37a65.49,65.49,0,0,1,16.21.9c.48,5.11.94,10.14,1.43,15.42a30.22,30.22,0,0,0,3.23.56c7.78.58,15.56,1.22,23.35,1.64,6.36.33,12.73.38,19.09.56.3,0,.6.06.88.09,1.8,4.14,3.21,17.67,2.21,21.62C647,329.51,631,329.43,614.69,329.13Z" transform="translate(-169.2 -154.77)"/><path class="cls-2" d="M597.07,221.08c-.45-7.34-1.41-14.31-1.3-21.44,1.56-.6,3.07-1.08,4.5-1.73q7.11-3.28,14.18-6.69a9.6,9.6,0,0,0,2.06-1.4c1.17-1,1.23-2,.08-3.08a10.17,10.17,0,0,0-2.66-1.71c-4.15-1.85-8.34-3.6-12.5-5.43-1.52-.67-3-1.48-4.49-2.19a1.79,1.79,0,0,1-1.14-1.77,88.55,88.55,0,0,1,.85-17.22,16.57,16.57,0,0,1,.47-1.59,8.42,8.42,0,0,1,.92.38l32.35,18.06a22.54,22.54,0,0,1,3,1.69c3,2.35,6.49,2.86,10.24,2.82,5.45-.07,10.91.22,16.36.37.68,0,1.35.09,2.34.16,1.4,6.66.7,13.35.47,20.27-.91,0-1.72.12-2.52.13-7,.15-13.94.3-20.91.41a6.72,6.72,0,0,0-3.78,1.22,171.66,171.66,0,0,1-35.44,17.85C599.25,220.5,598.37,220.7,597.07,221.08Z" transform="translate(-169.2 -154.77)"/><path class="cls-1" d="M174.17,247c7.58-1.45,14.83-1.41,22.23-1.35a21.86,21.86,0,0,1,.16,2.2c-.37,15.09-.7,30.17-1.14,45.26-.19,6.29-.61,12.57-.92,18.86-.12,2.36-.15,2.4-2.35,2.82a82.66,82.66,0,0,1-16.1,1,7.35,7.35,0,0,1-1.13-.22C173.55,292.81,173.77,270,174.17,247Z" transform="translate(-169.2 -154.77)"/><path class="cls-2" d="M522.86,385.23c21.16-.05,42,.75,62.95,2,1.69,5.84,1.45,11.72,1.44,17.85-21.07,1.26-41.94,1.47-63.06.7C522.58,399,522.9,392.3,522.86,385.23Z" transform="translate(-169.2 -154.77)"/><path class="cls-1" d="M434.63,208c-7.44-3.37-14.54-7.42-22.89-7.6-.09-.37-.22-.59-.18-.78.95-4.23.52-8.46-.15-12.65-.45-2.83-2.55-4.61-5-5.79a3.81,3.81,0,0,0-2.78.36,13.41,13.41,0,0,0-2.71,2c-4.38,3.73-8.74,7.5-13.14,11.21a31.58,31.58,0,0,1-9.16,5.4c-4.41,1.67-7.72.77-10.69-2.9-2.68-3.31-2.66-3.65.22-6.84a105,105,0,0,1,25.32-20.54,5.69,5.69,0,0,1,5.34-.44c13.4,5,24,13.31,31.12,25.89A54.71,54.71,0,0,1,434.63,208Z" transform="translate(-169.2 -154.77)"/><path class="cls-1" d="M526.28,194.83c-2.23,5.13-6.47,7.16-11.65,5.54a25.18,25.18,0,0,1-8.52-4.68c-5-4.16-9.94-8.42-14.84-12.71-3.15-2.76-4.62-2.78-7.7.14a8.4,8.4,0,0,0-2.75,6c-.05,2.8.08,5.6.12,8.4,0,.82,0,1.64,0,2.67-8.69.51-16,4.7-23.91,8.72.5-1.71.83-2.93,1.2-4.14a50.51,50.51,0,0,1,22.91-29.43c3.61-2.19,7.53-3.88,11.32-5.76a4.94,4.94,0,0,1,5,.27,105.73,105.73,0,0,1,28.24,24C525.91,194.22,526.09,194.56,526.28,194.83Z" transform="translate(-169.2 -154.77)"/><path class="cls-1" d="M419.89,159.2c1.56-.49,3.86-1.11,5.45-1.43a99.31,99.31,0,0,1,24.88-1.6,91.69,91.69,0,0,1,16.9,2c1.16.28,2.3.66,3.72,1.07-.6.61-24.14,24.83-25.14,26.11C445.7,184,419.89,159.4,419.89,159.2Z" transform="translate(-169.2 -154.77)"/><path class="cls-1" d="M361.87,160.61a54.44,54.44,0,0,1,20.05-1.69c0,2.11.05,5.61-.07,7.55,0,.47-.58,1-1,1.34-3.39,2.66-6.9,5.19-10.21,7.95-2.55,2.13-8.22,8.05-8.94,8.66C361.34,177.09,361.91,168.07,361.87,160.61Z" transform="translate(-169.2 -154.77)"/></g><text class="cls-3" transform="translate(480.67 14.19)">®</text></svg>